# xmcd
#
# Track frame offsets:
#	150
#	19933
#	42578
#	62630
#	80134
#	100249
#	123412
#	142441
#	165178
#	185083
#	208326
#	226269
#
# Disc length: 3300 seconds
#
# Revision: 4
# Processed by: cddbd v1.5.2PL0 Copyright (c) Steve Scherf et al.
# Submitted via: EZCDAudioConverter 8.0.2.1
#
DISCID=b20ce20c
DTITLE=Lê Hiếu - Chỉ Còn Những Kỷ Niệm
DYEAR=2011
DGENRE=World Pop
TTITLE0=Lê Hiếu - Chuyện như thế đấy
TTITLE1=Lê Hiếu - Nỗi đau còn mãi
TTITLE2=Lê Hiếu - Đêm chơ vơ
TTITLE3=Lê Hiếu - Cành hoa trắng
TTITLE4=Lê Hiếu - Khúc thụy du
TTITLE5=Lê Hiếu - Ước sao ta chưa gặp nhau
TTITLE6=Lê Hiếu - Chỉ Còn Những Kỷ Niệm
TTITLE7=Lê Hiếu - Biển cạn
TTITLE8=Lê Hiếu - Ân tình phôi pha
TTITLE9=Lê Hiếu - LK Yêu người yêu đời, Yêu em
TTITLE10=Lê Hiếu - Không quay về
TTITLE11=Lê Hiếu, Quân Rapsoul - Chuyện như thế đấy
EXTD=
EXTT0=
EXTT1=
EXTT2=
EXTT3=
EXTT4=
EXTT5=
EXTT6=
EXTT7=
EXTT8=
EXTT9=
EXTT10=
EXTT11=
PLAYORDER=
